#!OML:ASF F:\VICON\USERDATA\INSTALL\rory3\rory3.ASF
:FULLY-SPECIFIED
:DEGREES
110
root 1.5822292559482918 17.879897565435723 51.97453345217539 -3.0720723237768173 -1.2280727383264318 -4.948567768008115
lfemur -7.739354240256381 -1.9090664834849405 -15.298472080110143
ltibia 55.59960149340114
lfoot -8.044630563365239 0.9782563920107128
ltoes -7.5566144485110485
rfemur -15.246876771090998 3.5106423086266894 28.509454616317914
rtibia 33.35388368043228
rfoot -15.795582176971418 -10.43009615350264
rtoes 1.6365298094419256
lowerback 1.0 -0.7609061378755051 2.479898385105414
upperback -0.025434203564427438 -0.014306432913002376 2.4472057394567046
thorax -5.463596560136052 0.022491487271009303 1.7479755804416
lowerneck -16.32130596358584 -2.9652116784627944 -1.1340062729189997
upperneck 22.4753508303477 -3.6927422773330143 -0.2571315112048463
head 9.892969336677806 -1.8575904979733322 -0.33156163515557846
lclavicle -1.8417277673436344e-15 -1.4125421014916148e-16
lhumerus -29.82792399701028 0.9888198697230273 82.46815169597265
lradius 20.91643993024486
lwrist 6.466600170550006
lhand -27.52676401319697 23.49123512540933
lfingers nan
lthumb -0.7890480524341253 53.70514090588134
rclavicle -1.9126396768694437e-15 -1.9352343173353124e-16
rhumerus -32.074002882547475 -25.86313532608107 -74.56628233250973
rradius 30.960684557915478
rwrist 2.0746872086610137
rhand -18.057836652414274 1.0
rfingers nan
rthumb 8.36682234403046 -7.978926313248973
111
root 1.5495001864612676 17.882985403344573 51.295305818522515 -3.122286548320107 -1.0424261769873946 -5.230286881116198
lfemur -10.211975763234864 -1.7622734219229594 -14.849909077045073
ltibia 56.428105037970084
lfoot -7.288896134357601 2.014102146395325
ltoes -8.532999880787024
rfemur -12.66806965617699 3.621054031055312 28.863925272211397
rtibia 32.69638893688276
rfoot -15.93411953284829 -10.590521596793206
rtoes 1.0763066177885712
lowerback 1.0 -0.5463802617249418 2.8213992414501465
upperback 0.004250363512270261 0.35360559805437497 2.426903116677462
thorax -5.46439039230381 0.21873175936674313 1.3823286185095245
lowerneck -16.270002269926 -3.045991839556911 -1.0927443049454242
upperneck 22.31818121867243 -3.8360863609745164 -0.2328094289080898
head 9.851779070622971 -1.9073581961838137 -0.3543085927359949
lclavicle -1.8359281893308876e-15 -1.3834698000755913e-16
lhumerus -30.547338569742116 1.5000079573907807 82.54313544217709
lradius 20.816138982651974
lwrist 6.792155010702979
lhand -27.66198324884135 23.458371128365794
lfingers nan
lthumb -0.9707677840618691 53.64957856259085
rclavicle -1.9050415815591986e-15 -1.9168912584195336e-16
rhumerus -32.00695548001876 -26.05379338719736 -74.13760095798364
rradius 30.967622568463035
rwrist 1.801918427281974
rhand -18.074989854787816 1.0
rfingers nan
rthumb 8.37137895238866 -7.9641135084535755
112
root 1.515933349031505 17.88051317732966 50.636043508302365 -3.2496712624426616 -0.7398462639129263 -5.28420155678621
lfemur -12.424128772834823 -1.7932667064085295 -14.836491102363755
ltibia 56.17880231482073
lfoot -7.503959911250181 1.3169894106039846
ltoes -9.678719767420784
rfemur -10.48752320985128 3.5710476949482817 28.88918840718277
rtibia 32.188740267117254
rfoot -15.312137931647708 -10.24558227624218
rtoes 0.571265000886926
lowerback 1.0 -0.3794798050690591 2.9988978462575373
upperback 0.02592887802316543 0.619074552720854 2.359493045185502
thorax -5.435834538198253 0.35066817168533904 0.9998139681297609
lowerneck -16.16611722288083 -3.115666337142644 -1.0944440598913008
upperneck 22.286613960477887 -3.960997739777884 -0.20256107990045158
head 9.85330725230538 -1.9503686029241003 -0.36914972310001604
lclavicle -1.8304139471768185e-15 -1.3567141217791217e-16
lhumerus -31.180662581781213 2.005868979170237 82.57892608464266
lradius 20.925939618100454
lwrist 7.00340047565377
lhand -27.706293646743312 23.431261897601974
lfingers nan
lthumb -1.0226473809194416 53.638254412985965
rclavicle -1.8972158986636373e-15 -1.8977023280396983e-16
rhumerus -31.88477719378718 -26.13578423213478 -73.68400865371942
rradius 30.973212576920233
rwrist 1.7726719809015643
rhand -18.08759406940835 1.0
rfingers nan
rthumb 8.342831919678664 -7.98809666296086
113
root 1.4670632386661353 17.86859776408295 49.24779414785269 -3.442012102299681 -0.40645109641894295 -5.364194930124572
lfemur -14.298253633924919 -1.9632174740009583 -15.023511654564647
ltibia 54.95167918189092
lfoot -7.7578137893855565 2.037338669549198
ltoes -9.81838331313842
rfemur -9.294842263198984 3.4013509782447033 28.70317172025806
rtibia 32.40226026162571
rfoot -13.954022586642001 -9.519615574552903
rtoes 0.3393402659207001
lowerback 1.0 -0.2506639417578347 3.1207412072710707
upperback 0.035508574740610366 0.8448589169333593 2.2673654119965096
thorax -5.400536957614931 0.45942516378031345 0.62417719834667
lowerneck -16.04746542364688 -3.1699781196694397 -1.1241300790905986
upperneck 22.386539531685134 -4.0622986156532255 -0.17312521865901026
head 9.896145195316535 -1.9855920521794987 -0.37865129032447525
lclavicle -1.825455728527978e-15 -1.3347231011717454e-16
lhumerus -31.702490879154627 2.456107299484092 82.59401588999042
lradius 21.214382080859792
lwrist 7.279163321684592
lhand -27.704399399032745 23.44167924956721
lfingers nan
lthumb -1.058991429272097 53.57155721220433
rclavicle -1.8891859542729864e-15 -1.8785541099781505e-16
rhumerus -31.74266555102173 -26.14336853674047 -73.32921209707762
rradius 30.981184618859153
rwrist 1.9300470342698048
rhand -18.09279979978537 1.0
rfingers nan
rthumb 8.360900367962696 -7.902785423152679
114
root 1.436344783089915 17.85870062927017 49.06325082181571 -3.577104695615277 -0.04825490532229382 -5.055482072580538
lfemur -15.547305656281644 -2.2337907226597817 -15.673765362803914
ltibia 52.72042202651129
lfoot -7.7571278614295744 2.4014268084719883
ltoes -10.566629178269837
rfemur -8.77859743079954 3.010769514351956 28.01778688782091
rtibia 33.27289350823233
rfoot -12.00368935088232 -8.71743632784902
rtoes 0.5239150073074357
lowerback 1.0 -0.18102482447891566 2.970424324472298
upperback 0.030529775308533097 0.8841272970090293 2.090965328798948
thorax -5.355557722392946 0.478215905829276 0.3793014585024088
lowerneck -15.940158466123767 -3.207159207380816 -1.1603520564201057
upperneck 22.572799670283096 -4.138676394769193 -0.14434719379600758
head 9.963961170931483 -2.012444323364673 -0.3825354966131678
lclavicle -1.8221184155210576e-15 -1.324654492840775e-16
lhumerus -32.13718996768529 2.837093310424815 82.59435120287898
lradius 21.64936399815657
lwrist 7.572952016809078
lhand -27.709046027054185 23.41532336072283
lfingers nan
lthumb -1.0840609496633447 53.49720882415255
rclavicle -1.8810423473364406e-15 -1.8562379857810743e-16
rhumerus -31.537628225639462 -26.07199615894754 -73.16344179718888
rradius 30.98506274349363
rwrist 2.405401205903701
rhand -18.090162854235295 1.0
rfingers nan
rthumb 8.351005240394867 -7.869418415787612
115
root 1.408774356970599 17.843485234563083 48.56621127833626 -3.752394870525078 0.11643411569354134 -4.318475107146236
lfemur -15.952182995877644 -2.489318931356548 -16.69005660301621
ltibia 49.53641355349551
lfoot -7.863112474501735 2.62958978399693
ltoes -10.417249278402318
rfemur -8.498173097223852 2.5559756494075914 27.023547097285416
rtibia 34.50333635118441
rfoot -9.860004204110217 -8.2444822311033
rtoes 1.1995951933887272
lowerback 1.0 -0.13439170541114887 2.4653605074507974
upperback 0.04773118387482703 0.8370473787189532 1.8551497038817768
thorax -5.2772552728646245 0.46345127181194834 0.2960233061549661
lowerneck -15.859105524943828 -3.234864726520053 -1.202352829440407
upperneck 22.78493912962179 -4.200721970102173 -0.10398097803294366
head 10.037177966371644 -2.0337436767564085 -0.3773189646213342
lclavicle -1.8207977377735438e-15 -1.3245596210133546e-16
lhumerus -32.45531193998386 3.202160609987175 82.58948157763761
lradius 22.176669511676003
lwrist 7.677329629772553
lhand -27.672026290046134 23.420265502960326
lfingers nan
lthumb -1.1051418939233917 53.40981120321406
rclavicle -1.875441483862121e-15 -1.8381322333532588e-16
rhumerus -31.24795764492058 -25.90602165021515 -73.16176602910573
rradius 30.965045222794082
rwrist 3.1546200317501882
rhand -18.08672993600343 1.0
rfingers nan
rthumb 8.369144713903788 -7.792350301771962
116
root 1.4147047858653174 17.836947362315648 49.18951429205526 -3.8379001420415344 0.26631384614263576 -3.388696260066765
lfemur -15.632629273996216 -2.740733571387483 -17.851878355043205
ltibia 45.69164002311561
lfoot -8.382733519186742 1.6088319598386098
ltoes -10.2815173768383
rfemur -8.827375832043597 2.0718635371921827 25.77620656441228
rtibia 36.25570082628958
rfoot -8.027064994051935 -8.219474242932522
rtoes 2.307685553081247
lowerback 1.0 -0.13456783153265067 1.8201114880553844
upperback 0.0674743456134061 0.6889120419391215 1.6202934020542095
thorax -5.1957178596897 0.39501345143192496 0.316379760516569
lowerneck -15.799021493958676 -3.2563965504180366 -1.2538185311407144
upperneck 22.96156909045762 -4.252271824149982 -0.04283792028425653
head 10.094942880440916 -2.0502370051441963 -0.35983266695843147
lclavicle -1.821286699128671e-15 -1.331831832521971e-16
lhumerus -32.62387690162058 3.5121010257207668 82.57924955725457
lradius 22.746497964208157
lwrist 7.615279253612464
lhand -27.633474233357923 23.383514406657117
lfingers nan
lthumb -1.1030210391422317 53.310727101676605
rclavicle -1.872579196370531e-15 -1.8234628768067197e-16
rhumerus -30.89486681891818 -25.64700959227725 -73.25497363165903
rradius 30.929843644333772
rwrist 3.3682724535938298
rhand -18.08369166478316 1.0
rfingers nan
rthumb 8.357003326791396 -7.806085478172902
